<?xml version="1.0" encoding="UTF-8"?>
<svg width="189px" height="189px" viewBox="0 0 146 189" version="1.1" xmlns="http://www.w3.org/2000/svg" xmlns:xlink="http://www.w3.org/1999/xlink">
    <!-- Generator: Sketch 52.1 (67048) - http://www.bohemiancoding.com/sketch -->
    <title>Group 18</title>
    <desc>Created with Sketch.</desc>
    <g id="Page-1" stroke="none" stroke-width="1" fill="none" fill-rule="evenodd">
        <g id="Group-18" transform="translate(0.000000, 1.000000)">
            <g id="Group-17" fill-rule="nonzero">
                <g id="Group-16">
                    <g id="Group-15" transform="translate(31.902222, 49.333333)">
                        <g id="Group-14" transform="translate(7.564444, 0.000000)" fill="#000000">
                            <ellipse id="Oval" cx="2.56" cy="2.63111111" rx="2.56" ry="2.63111111"></ellipse>
                            <ellipse id="Oval" cx="39.5377778" cy="2.63111111" rx="2.56" ry="2.63111111"></ellipse>
                        </g>
                        <g id="Group-14" transform="translate(0.328889, 8.551111)" fill="#FF9576">
                            <ellipse id="Oval" cx="3.22347083" cy="3.94666667" rx="3.22347083" ry="3.94666667"></ellipse>
                            <ellipse id="Oval" cx="53.7796542" cy="3.94666667" rx="3.22347083" ry="3.94666667"></ellipse>
                        </g>
                        <path d="M12.8266667,20.3911111 C17.258569,17.76 22.5207912,16.4444444 28.6133333,16.4444444 C34.7058754,16.4444444 39.9680976,17.76 44.4,20.3911111" id="Line-2" stroke="#000000" stroke-linecap="square"></path>
                    </g>
                    <circle id="Oval" stroke="#16612c" cx="61.5022222" cy="57.2266667" r="56.8977778"></circle>
                    <path d="M57.7623958,118.209219 C63.7434562,118.209219 72.3781837,117.381972 83.3502083,113.767773 C85.1551215,113.173233 87.9617042,111.844777 91.7699566,109.782405 L92.4820139,105.127374 L94.9335851,103.327799 C96.8517077,102.04504 98.2417236,100.998795 99.1036328,100.189063 C109.735994,90.2003472 117.210347,76.9953299 118.4,60.8444444 C119.022158,52.3979452 117.764195,44.779331 114.931892,37.2852083 C112.348437,30.4495225 108.496295,23.6493868 102.74566,17.7754167 C90.6904687,5.46167535 78.7592535,0.928211806 58.8711111,0.328888889 C56.4776727,0.256763374 53.2886032,0.958262204 51.0175786,1.40484375 C46.4758771,2.29793846 42.8654273,3.60070075 37.4502951,5.66177083 C15.7963093,13.9035609 0.554357639,36.6038245 0.554357639,60.8444444 C0.554357639,92.2682194 26.3386209,118.209219 57.7623958,118.209219 Z" id="Oval" stroke="#16612c"></path>
                    <circle id="Oval" stroke="#16612c" cx="61.1733333" cy="56.8977778" r="44.7288889"></circle>
                    <path d="M115.051377,93.4186653 C115.051502,93.4163197 115.051636,93.413859 115.051779,93.4112795 C115.051715,93.4124382 115.05165,93.4136006 115.051585,93.4147667 Z M115.046514,93.5127486 C115.038137,93.6850994 115.02936,93.9167754 115.02024,94.2070051 C114.997986,94.9151877 114.973783,95.9683888 114.947664,97.3658519 C114.895376,100.163348 114.835434,104.338543 114.767847,109.89105 C114.632657,120.997317 114.466888,137.613137 114.270541,159.73848 C114.270364,159.762297 114.270364,159.762297 114.270329,159.786115 C114.270329,162.750847 116.673719,165.154237 119.638451,165.154237 C119.639591,165.154237 119.639591,165.154237 119.640732,165.154236 C122.632738,165.152976 125.057218,162.726454 125.055958,159.734448 C125.042042,126.681381 125.041972,126.51485 125.028195,93.7931684 C123.701287,93.7929565 122.139372,93.7949014 120.634082,93.8005694 C120.136001,93.8024448 119.665491,93.8046801 119.227047,93.8072993 C118.278193,93.8129676 117.420472,93.7598957 116.437557,93.6558672 C116.539951,93.6667043 115.35045,93.5332664 115.141471,93.5184793 C115.107422,93.51607 115.075777,93.5141664 115.046514,93.5127486 Z M114.841533,93.513056 C114.840052,93.5131997 114.838594,93.5133477 114.837159,93.5135001 C114.839818,93.5132176 114.843443,93.5124534 114.848008,93.5108995 Z" id="Rectangle" stroke="#16612c" transform="translate(119.663144, 129.331921) rotate(-40.000000) translate(-119.663144, -129.331921) "></path>
                    <path d="M91.7742414,109.841286 C91.874414,109.315331 91.9513635,108.839005 92.00509,108.412307 C92.1008813,107.651527 92.3176023,106.141414 92.3176023,105.771235 C92.3176023,104.883777 92.5681596,104.696452 93.0692743,105.209261 L93.5644581,105.771235 L134.32957,155.387518 C135.266786,156.421774 135.939015,157.072226 136.346256,157.338872 C137.327221,157.981173 138.381426,158.149306 139.0022,158.149306 C140.513208,158.149306 135.315558,159.402092 132.983349,158.464646 C130.65114,157.527201 128.904904,154.471241 127.157937,152.390319 C125.993292,151.003038 114.198727,136.820027 91.7742414,109.841286 Z" id="Path-2" stroke="#16612c"></path>
                </g>
            </g>
            <text id="No-results-found" font-family="Roboto, Helvetica Neue, Helvetica, Arial, sans-serif" font-size="16" font-weight="normal" letter-spacing="0.159999996" fill="#000000">
                <tspan x="14.2317188" y="187">Ничего не найдено</tspan>
            </text>
        </g>
    </g>
</svg>