<?xml version="1.0" encoding="iso-8859-1"?>
<!-- Generator: Adobe Illustrator 18.1.1, SVG Export Plug-In . SVG Version: 6.00 Build 0)  -->
<svg version="1.1" id="Capa_1" xmlns="http://www.w3.org/2000/svg" xmlns:xlink="http://www.w3.org/1999/xlink" x="0px" y="0px"
	height="200" viewBox="0 0 61.494 61.494" style="enable-background:new 0 0 61.494 61.494;" xml:space="preserve">
<g>
	<path d="M58.279,11.763H3.214C1.442,11.763,0,13.205,0,14.976v31.539c0,1.771,1.442,3.215,3.214,3.215h55.065
		c1.772,0,3.214-1.443,3.214-3.215V14.976C61.494,13.205,60.052,11.763,58.279,11.763z M59.694,46.515
		c0,0.779-0.635,1.414-1.414,1.414H3.214c-0.78,0-1.414-0.635-1.414-1.414V14.976c0-0.779,0.635-1.412,1.414-1.412h55.065
		c0.78,0,1.414,0.633,1.414,1.412V46.515z"/>
	<path d="M41.073,19.603H9.886c-1.219,0-2.21,0.992-2.21,2.211v17.863c0,1.219,0.992,2.211,2.21,2.211h31.188
		c1.219,0,2.211-0.992,2.211-2.211V21.814C43.284,20.595,42.292,19.603,41.073,19.603z M41.484,39.677
		c0,0.227-0.184,0.41-0.411,0.41H9.886c-0.227,0-0.411-0.184-0.411-0.41V21.814c0-0.227,0.184-0.41,0.411-0.41h31.188
		c0.227,0,0.411,0.184,0.411,0.41V39.677z"/>
	<path d="M51.704,19.838h-2.234c-0.752,0-1.363,0.613-1.363,1.365v18.035c0,0.752,0.611,1.363,1.363,1.363h2.234
		c0.751,0,1.363-0.611,1.363-1.363V21.203C53.066,20.451,52.455,19.838,51.704,19.838z M51.267,38.801h-1.36V21.638h1.36V38.801z"/>
	<path d="M19.013,25.586c-0.369-0.334-0.939-0.305-1.271,0.064c-0.333,0.367-0.305,0.938,0.064,1.271
		c1.699,1.535,0.453,3.527,0.274,3.801c-1.506,2.586-0.233,4.658,0.65,5.393c0.168,0.141,0.372,0.209,0.575,0.209
		c0.258,0,0.515-0.111,0.692-0.326c0.318-0.381,0.266-0.949-0.117-1.268c-0.056-0.047-1.369-1.17-0.278-3.051
		C20.412,30.49,21.331,27.681,19.013,25.586z"/>
	<path d="M25.388,25.586c-0.369-0.334-0.937-0.305-1.271,0.064c-0.333,0.367-0.305,0.938,0.063,1.27
		c1.699,1.537,0.452,3.529,0.302,3.756c-1.603,2.404-0.314,4.594,0.592,5.414c0.172,0.156,0.389,0.234,0.604,0.234
		c0.245,0,0.49-0.1,0.667-0.297c0.334-0.367,0.306-0.938-0.062-1.271c-0.06-0.053-1.457-1.352-0.308-3.076
		C26.786,30.49,27.705,27.683,25.388,25.586z"/>
	<path d="M31.763,25.586c-0.369-0.334-0.937-0.305-1.271,0.064c-0.333,0.367-0.305,0.938,0.063,1.27
		c1.698,1.537,0.452,3.529,0.296,3.764c-1.604,2.473-0.301,4.625,0.612,5.418c0.17,0.148,0.38,0.223,0.59,0.223
		c0.251,0,0.502-0.105,0.68-0.311c0.326-0.375,0.287-0.943-0.089-1.27c-0.06-0.053-1.445-1.289-0.294-3.064
		C33.16,30.488,34.079,27.683,31.763,25.586z"/>
</g>
<g>
</g>
<g>
</g>
<g>
</g>
<g>
</g>
<g>
</g>
<g>
</g>
<g>
</g>
<g>
</g>
<g>
</g>
<g>
</g>
<g>
</g>
<g>
</g>
<g>
</g>
<g>
</g>
<g>
</g>
</svg>
