<?xml version="1.0" encoding="iso-8859-1"?>
<!-- Generator: Adobe Illustrator 18.1.1, SVG Export Plug-In . SVG Version: 6.00 Build 0)  -->
<svg width="60" height="60" version="1.1" id="Capa_1" xmlns="http://www.w3.org/2000/svg" xmlns:xlink="http://www.w3.org/1999/xlink" x="66px" y="66px"
	 viewBox="0 0 66.439 66.439" style="enable-background:new 0 0 66.439 66.439;" xml:space="preserve">
<g>
	<circle cx="4.902" cy="27.954" r="1.048"/>
	<circle cx="61.816" cy="27.954" r="1.048"/>
	<path d="M33.429,31.096c-1.5,0-2.72,1.221-2.72,2.721v18.781c0,1.5,1.22,2.721,2.72,2.721c1.501,0,2.721-1.221,2.721-2.721V33.816
		C36.15,32.316,34.929,31.096,33.429,31.096z M34.35,52.598c0,0.508-0.414,0.92-0.921,0.92c-0.507,0-0.92-0.412-0.92-0.92V33.816
		c0-0.508,0.413-0.92,0.92-0.92c0.508,0,0.921,0.412,0.921,0.92V52.598z"/>
	<path d="M65.986,26.154c-0.889-1.449-2.711-1.74-2.915-1.768L22.246,24.38L18.641,7.914c-0.202-1.305-0.708-2.236-1.505-2.77
		c-0.845-0.566-1.708-0.461-1.964-0.414c-1.379,0.182-2.048,0.855-2.367,1.391c-0.794,1.332-0.19,2.973-0.15,3.062l4.096,15.196
		L3.485,24.377l-0.123,0.01c-0.205,0.027-2.027,0.318-2.915,1.768c-0.537,0.877-0.596,1.936-0.143,3.225
		C0.352,29.486,1.55,32,5.135,32l5.396-0.094c0.21,7.482,1.033,27.564,3.83,29.66l0.24,0.182h37.232l0.24-0.182
		c2.797-2.096,3.62-22.178,3.83-29.66L61.314,32c3.568,0,4.767-2.514,4.849-2.701C66.583,28.09,66.524,27.033,65.986,26.154z
		 M14.363,8.623c-0.08-0.205-0.315-1.07-0.011-1.582c0.168-0.283,0.531-0.461,1.158-0.543c0.013,0,0.339-0.059,0.644,0.156
		c0.346,0.244,0.591,0.775,0.719,1.59l3.531,16.136l-1.787,0L14.363,8.623z M64.5,28.615c-0.032,0.064-0.808,1.584-3.171,1.586
		l-7.181-0.125l-0.023,0.893c-0.317,12.613-1.53,26.891-2.974,28.979H15.281c-1.443-2.088-2.657-16.365-2.974-28.979l-0.023-0.893
		l-7.165,0.123c-2.358,0-3.141-1.492-3.148-1.492c-0.233-0.672-0.231-1.213,0.008-1.605c0.357-0.592,1.218-0.857,1.579-0.924h59.313
		c0.222,0.043,1.183,0.268,1.581,0.918C64.693,27.49,64.697,28.033,64.5,28.615z"/>
</g>
<g>
</g>
<g>
</g>
<g>
</g>
<g>
</g>
<g>
</g>
<g>
</g>
<g>
</g>
<g>
</g>
<g>
</g>
<g>
</g>
<g>
</g>
<g>
</g>
<g>
</g>
<g>
</g>
<g>
</g>
</svg>
